PathFileType	4	(X/Y/Z)	C:\Users\dbl\Desktop\20210112(1)\20210112\bx_y_0_901.trc
DataRate	CameraRate	NumFrames	NumMarkers	Units	OrigDataRate	OrigDataStartFrame	OrigNumFrames
50.00	50.00	       6	43	mm	50.00	400	       457
Frame#	Time	Top.Head			R.Acromium			L.Acromium			Sternum			R.ASIS			L.ASIS			V.Sacral			R.Thigh.Upper			R.Thigh.Front			R.Thigh.Rear			R.Knee.Lat			R.Knee.Med			R.Shank.Upper			R.Shank.Front			R.Shank.Rear			R.Ankle.Lat			R.Midfoot.Lat			R.Toe.Lat			R.Toe.Tip			R.Toe.Med			R.Ankle.Med			R.Midfoot.Sup			R.Heel			L.Thigh.Upper			L.Thigh.Front			L.Thigh.Rear			L.Knee.Lat			L.Knee.Med			L.Shank.Upper			L.Shank.Front			L.Shank.Rear			L.Ankle.Lat			L.Midfoot.Lat			L.Toe.Lat			L.Toe.Tip			L.Toe.Med			L.Ankle.Med			L.Midfoot.Sup			L.Heel			origin1 front left			origin2 front right			origin 3 back right			origin 4 back leftt			
		X1	Y1	Z1	X2	Y2	Z2	X3	Y3	Z3	X4	Y4	Z4	X5	Y5	Z5	X6	Y6	Z6	X7	Y7	Z7	X8	Y8	Z8	X9	Y9	Z9	X10	Y10	Z10	X11	Y11	Z11	X12	Y12	Z12	X13	Y13	Z13	X14	Y14	Z14	X15	Y15	Z15	X16	Y16	Z16	X17	Y17	Z17	X18	Y18	Z18	X19	Y19	Z19	X20	Y20	Z20	X21	Y21	Z21	X22	Y22	Z22	X23	Y23	Z23	X24	Y24	Z24	X25	Y25	Z25	X26	Y26	Z26	X27	Y27	Z27	X28	Y28	Z28	X29	Y29	Z29	X30	Y30	Z30	X31	Y31	Z31	X32	Y32	Z32	X33	Y33	Z33	X34	Y34	Z34	X35	Y35	Z35	X36	Y36	Z36	X37	Y37	Z37	X38	Y38	Z38	X39	Y39	Z39	X40	Y40	Z40	X41	Y41	Z41	X42	Y42	Z42	X43	Y43	Z43	

400	7.980	-742.94513	114.91000	1845.78674	-690.26758	-66.46048	1545.89038	-707.11646	297.23444	1529.49817	-614.38416	113.33598	1440.14648	-576.93304	-9.89762	1050.15222	-567.33411	217.82062	1068.20593	-775.34131	94.01979	1051.06006	-637.46954	-74.57895	858.84460	-572.40546	-2.58880	802.53027	-679.06604	-50.38079	717.28986	-692.04517	-29.73545	613.99133	-681.35480	79.41866	576.86749	-706.63965	-26.25721	567.76428	-658.95972	18.18094	519.45691	-755.73608	-35.55578	489.93906	-766.92871	-6.06204	208.37758	-664.09637	-68.09977	162.37839	-622.34149	-78.49046	158.39456	-559.64056	-38.09637	163.91943	-604.00067	19.97062	166.44165	-716.51740	77.77301	215.92891	-675.95813	54.87369	157.60593	-794.81555	54.78393	174.94817	-622.40820	277.14157	875.20593	-566.26099	211.25500	811.57117	-674.42175	268.61282	744.57062	-709.54932	247.30037	640.22998	-679.52515	141.08202	571.89215	-718.71338	243.03123	576.72266	-666.38013	203.23315	531.28827	-761.51379	251.94154	504.97998	-770.23706	221.57321	206.11545	-666.88867	298.67566	160.59927	-629.78979	306.78168	162.90074	-560.15344	259.93164	166.09161	-594.07642	221.89117	172.83418	-710.55585	150.96968	215.54121	-675.13544	173.14221	155.61382	-795.56195	171.60013	184.61909	-528.18140	304.24200	146.37910	-517.26617	-72.46735	143.00995	-875.96045	-78.73976	141.26936	-882.67822	296.01724	144.43790	
401	8.000	-742.59882	114.90348	1845.81018	-690.16681	-66.46049	1545.85681	-706.93872	297.23465	1529.51880	-614.14124	113.02596	1439.84680	-576.91150	-9.85800	1050.15796	-567.27899	217.83118	1068.17651	-775.25879	94.06478	1051.09204	-637.50562	-74.52235	858.83667	-572.29797	-2.61981	802.44055	-679.11438	-50.32204	717.32208	-692.06958	-29.69907	613.98914	-681.36646	79.41847	576.85284	-706.73175	-26.21281	567.65979	-658.94476	18.25713	519.45544	-755.76709	-35.56580	489.98294	-767.01495	-6.06083	208.37300	-664.09857	-68.11205	162.41066	-622.43414	-78.41404	158.38156	-559.64117	-38.10675	163.90900	-604.02374	19.98403	166.43063	-716.42047	77.76640	215.94664	-675.93774	54.86763	157.61263	-794.80579	54.81231	174.91492	-622.39294	277.18314	875.17273	-566.23517	211.24510	811.58795	-674.35620	268.71973	744.62140	-709.47827	247.26338	640.19647	-679.56110	141.11876	571.86456	-718.67847	243.07178	576.70654	-666.37170	203.26074	531.28381	-761.46735	252.00159	505.00128	-770.24500	221.58739	206.12877	-666.86829	298.68484	160.61571	-629.79834	306.80936	162.86584	-560.16180	259.94025	166.07440	-594.06500	221.88846	172.86563	-710.57928	150.96925	215.53981	-675.13177	173.14540	155.61742	-795.58295	171.57402	184.62221	-528.19916	304.28995	146.37680	-517.26331	-72.45436	142.94540	-875.97089	-78.72280	141.29938	-882.66748	296.05206	144.47667	
402	8.020	-742.24341	114.89378	1845.81372	-690.01147	-66.40940	1545.82642	-706.74506	297.29880	1529.53687	-613.90692	112.72694	1439.55945	-576.91077	-9.80810	1050.13684	-567.16431	217.85297	1068.16248	-775.18579	94.10358	1051.19263	-637.52362	-74.46845	858.86163	-572.21576	-2.64499	802.31445	-679.10339	-50.27221	717.34888	-692.06830	-29.70154	613.99725	-681.38922	79.42103	576.82739	-706.75793	-26.18213	567.62488	-658.96729	18.32499	519.44080	-755.75409	-35.56476	489.98523	-767.13593	-6.05840	208.36736	-664.09003	-68.09972	162.46152	-622.47607	-78.36893	158.36160	-559.63068	-38.10077	163.89027	-604.02155	19.99868	166.40280	-716.34558	77.74353	215.95483	-675.93970	54.88499	157.58054	-794.78082	54.83294	174.87274	-622.36176	277.21585	875.17474	-566.19922	211.23610	811.60516	-674.23145	268.84930	744.68640	-709.41290	247.23419	640.14728	-679.58496	141.13095	571.85492	-718.62018	243.07260	576.64606	-666.34894	203.28526	531.27887	-761.39722	252.04922	505.02301	-770.24689	221.58833	206.13179	-666.85779	298.68741	160.61940	-629.81104	306.83105	162.84206	-560.15253	259.94913	166.07365	-594.06738	221.88548	172.88724	-710.56903	150.99786	215.54750	-675.14233	173.15425	155.61963	-795.57477	171.57445	184.60266	-528.21515	304.33731	146.38557	-517.25427	-72.43697	142.87604	-875.94055	-78.73061	141.30257	-882.66516	296.09189	144.52075	
403	8.040	-741.89478	114.89058	1845.80847	-689.79828	-66.29924	1545.81604	-706.51355	297.42130	1529.55273	-613.68207	112.43948	1439.28516	-576.91809	-9.76928	1050.09387	-566.96985	217.89693	1068.15381	-775.09412	94.14301	1051.32727	-637.51050	-74.44309	858.91742	-572.14929	-2.66818	802.19183	-679.03870	-50.24800	717.35547	-692.06171	-29.69820	614.01605	-681.41211	79.43121	576.79822	-706.74182	-26.15610	567.63354	-659.00818	18.36075	519.46021	-755.71552	-35.53151	489.96265	-767.18951	-6.04990	208.36967	-664.08380	-68.07085	162.49506	-622.46320	-78.36906	158.34512	-559.61249	-38.09581	163.88472	-603.98114	20.01476	166.36166	-716.34003	77.72092	215.94293	-675.96295	54.91230	157.51788	-794.75110	54.83368	174.86784	-622.31238	277.22522	875.19928	-566.16016	211.23923	811.61633	-674.05701	268.94095	744.71149	-709.36877	247.24379	640.10083	-679.57281	141.11998	571.85291	-718.55200	243.06120	576.57446	-666.32428	203.29674	531.27643	-761.31458	252.09662	505.06766	-770.24121	221.57281	206.12341	-666.85339	298.68222	160.60567	-629.81580	306.83893	162.83797	-560.13666	259.96567	166.09207	-594.08148	221.88098	172.88576	-710.53448	151.04002	215.56079	-675.16296	173.14526	155.63422	-795.54248	171.59480	184.56358	-528.21686	304.36429	146.40460	-517.25946	-72.39330	142.81784	-875.87134	-78.76148	141.29655	-882.67334	296.13406	144.55910	
404	8.060	-741.55988	114.90114	1845.81543	-689.53339	-66.16550	1545.84485	-706.25110	297.56519	1529.57532	-613.46735	112.16418	1439.02478	-576.92023	-9.74615	1050.04944	-566.72845	217.96303	1068.13660	-774.97845	94.20403	1051.44446	-637.48669	-74.44157	858.96783	-572.10254	-2.69066	802.10852	-678.96716	-50.24672	717.34412	-692.06250	-29.67243	614.03625	-681.42798	79.45099	576.77332	-706.71069	-26.13416	567.65656	-659.04236	18.37878	519.50714	-755.68610	-35.47385	489.94754	-767.13916	-6.03659	208.38080	-664.09149	-68.04964	162.49037	-622.42230	-78.40842	158.34482	-559.59351	-38.10517	163.89900	-603.92389	20.02712	166.32819	-716.38281	77.71524	215.89871	-675.97516	54.91678	157.46628	-794.74261	54.81568	174.91475	-622.24768	277.22647	875.22003	-566.12567	211.26132	811.61029	-673.85657	268.99011	744.68878	-709.34778	247.29475	640.07947	-679.52466	141.09343	571.85547	-718.48785	243.06325	576.53534	-666.29163	203.29645	531.28479	-761.24652	252.14798	505.12869	-770.23340	221.55597	206.11057	-666.86023	298.66769	160.57330	-629.81464	306.83331	162.84912	-560.13116	260.00122	166.12308	-594.09735	221.87494	172.87421	-710.50433	151.06116	215.55498	-675.18292	173.09712	155.68320	-795.49677	171.61351	184.52090	-528.20227	304.36374	146.42635	-517.28705	-72.32944	142.77473	-875.80597	-78.79546	141.29715	-882.68488	296.16327	144.58217	
405	8.080	-741.23083	114.92581	1845.84119	-689.23907	-66.05644	1545.91333	-705.99005	297.68860	1529.60608	-613.26355	111.90161	1438.77905	-576.90991	-9.73217	1050.02173	-566.49915	218.02278	1068.11523	-774.85211	94.29559	1051.52563	-637.46881	-74.45126	858.99359	-572.08496	-2.70515	802.06335	-678.94263	-50.25160	717.33008	-692.06787	-29.64046	614.04773	-681.44330	79.48192	576.75366	-706.68640	-26.12300	567.68823	-659.06848	18.39910	519.53284	-755.68787	-35.42915	489.95645	-767.02545	-6.02227	208.39343	-664.10919	-68.04718	162.46767	-622.38574	-78.45809	158.35942	-559.57013	-38.12143	163.92249	-603.88806	20.03150	166.30911	-716.43542	77.73402	215.83133	-675.95367	54.87183	157.44363	-794.78003	54.79535	175.00146	-622.15894	277.23135	875.21735	-566.08936	211.30185	811.57867	-673.66724	269.04050	744.66730	-709.33435	247.35802	640.09113	-679.45886	141.06346	571.86823	-718.42896	243.08374	576.55145	-666.23901	203.29620	531.30212	-761.20886	252.19676	505.17273	-770.22968	221.55925	206.10971	-666.88287	298.64804	160.53244	-629.81696	306.81943	162.86685	-560.13983	260.05429	166.16986	-594.10596	221.86882	172.87305	-710.51410	151.02954	215.53020	-675.18579	173.01910	155.77011	-795.44873	171.61874	184.49586	-528.18488	304.34033	146.43571	-517.32147	-72.28630	142.77388	-875.79065	-78.80709	141.29333	-882.69299	296.16693	144.58488	
